<svg width="40" height="47" viewBox="0 0 40 47" fill="none" xmlns="http://www.w3.org/2000/svg">
<path fill-rule="evenodd" clip-rule="evenodd" d="M19.9288 0L29.8932 5.75301L39.8575 11.5058V23.0116V34.5175L29.8932 40.2703L19.9288 46.0233L9.96442 40.2703L0 34.5175V23.0116V11.5058L9.96442 5.75301L19.9288 0ZM19.9288 3.70881L28.2873 8.53452L36.6456 13.3602V21.0988L27.2036 21.0776C26.0413 21.0644 25.9255 21.0527 25.3108 20.316L21.6908 16.0427C21.9259 15.5347 22.0573 14.9688 22.0573 14.3723C22.0573 12.1731 20.2744 10.3902 18.0752 10.3902C15.876 10.3902 14.0931 12.1731 14.0931 14.3723C14.0931 16.5715 15.876 18.3544 18.0752 18.3544C18.5695 18.3544 19.0426 18.2641 19.4793 18.0995L24.7561 24.2272C25.1835 24.658 25.2708 24.6552 25.7323 24.6406H25.7324C25.8324 24.6374 25.9499 24.6337 26.0923 24.6337L36.6456 24.6549V32.6631L28.2873 37.4888L19.9288 42.3145L11.5704 37.4888L3.21201 32.6631V24.4975L12.3523 24.518C13.5145 24.5312 13.6303 24.5429 14.245 25.2796L17.865 29.5529C17.6299 30.0609 17.4985 30.6268 17.4985 31.2233C17.4985 33.4225 19.2814 35.2054 21.4806 35.2054C23.6798 35.2054 25.4627 33.4225 25.4627 31.2233C25.4627 29.0241 23.6798 27.2412 21.4806 27.2412C20.9863 27.2412 20.5132 27.3315 20.0765 27.4961L14.7997 21.3685C14.3723 20.9376 14.2851 20.9404 13.8236 20.955C13.7236 20.9582 13.606 20.962 13.4635 20.962L3.21201 20.9413V13.3602L11.5704 8.53452L19.9288 3.70881ZM18.0752 16.6609C16.8113 16.6609 15.7866 15.6362 15.7866 14.3723C15.7866 13.1084 16.8113 12.0837 18.0752 12.0837C19.3391 12.0837 20.3638 13.1084 20.3638 14.3723C20.3638 15.6362 19.3391 16.6609 18.0752 16.6609ZM23.7692 31.2233C23.7692 29.9594 22.7445 28.9347 21.4806 28.9347C20.2167 28.9347 19.192 29.9594 19.192 31.2233C19.192 32.4872 20.2167 33.5119 21.4806 33.5119C22.7445 33.5119 23.7692 32.4872 23.7692 31.2233Z" fill="#F3CA3E"/>
</svg>
